<?xml version="1.0" encoding="utf-8"?>
<svg version="1.1" xmlns:xlink="http://www.w3.org/1999/xlink" width="65px" height="50px" xmlns="http://www.w3.org/2000/svg">
  <g transform="matrix(1 0 0 1 -25 -100 )">
    <path d="M 60 4.16124837451236  L 60 16.6449934980494  C 61.6387648809524 16.6449934980494  62.7329799107143 17.0513654096229  63.6397879464286 17.8641092327698  C 64.5465959821429 18.6768530559168  65 19.6575639358474  65 20.8062418725618  C 65 21.9549198092761  64.5465959821429 22.9356306892068  63.6397879464286 23.7483745123537  C 62.7329799107143 24.5611183355006  61.6387648809524 24.9674902470741  60 24.9674902470741  L 60 37.4512353706112  C 60.3571428571429 38.5782401387083  59.897693452381 39.5535327264846  58.9787946428571 40.3771131339402  C 58.0598958333333 41.2006935413958  56.9717261904762 41.6124837451235  55.7142857142857 41.6124837451235  C 45.6305803571429 34.0918942349371  35.8128720238095 29.9739921976593  26.2611607142857 29.25877763329  C 24.858630952381 29.6705678370178  23.7583705357143 30.3857824013871  22.9603794642857 31.4044213263979  C 22.1623883928571 32.4230602514088  21.7875744047619 33.5121369744257  21.8359375 34.6716514954486  C 21.8843005952381 35.8311660164716  22.3679315476191 36.8335500650195  23.2868303571429 37.6788036410923  C 22.8031994047619 38.3940182054616  22.5251116071429 39.1038144776766  22.4525669642857 39.8081924577373  C 22.3800223214286 40.512570437798  22.4525669642857 41.1410923276983  22.6702008928571 41.6937581274382  C 22.8878348214286 42.2464239271782  23.2928757440476 42.8424360641526  23.8853236607143 43.4817945383615  C 24.477771577381 44.1211530125704  25.0581287202381 44.6629822280017  25.6263950892857 45.1072821846554  C 26.1946614583333 45.5515821413091  26.9382440476191 46.0988296488947  27.8571428571429 46.7490247074122  C 27.1558779761905 48.0060684872128  25.8077566964286 48.9055049848288  23.8127790178571 49.4473342002601  C 21.8178013392857 49.9891634156914  19.780505952381 50.1137841352406  17.7008928571429 49.8211963589077  C 15.6212797619048 49.5286085825748  14.0252976190476 48.927178153446  12.9129464285714 48.0169050715215  C 12.7436755952381 47.5184221933247  12.3869977678571 46.5702210663199  11.8429129464286 45.1723016905072  C 11.298828125 43.7743823146944  10.9119233630952 42.7503250975293  10.6821986607143 42.1001300390117  C 10.4524739583333 41.4499349804941  10.1743861607143 40.4854789770264  9.84793526785714 39.2067620286086  C 9.521484375 37.9280450801907  9.34012276785714 36.8335500650195  9.30385044642857 35.9232769830949  C 9.267578125 35.0130039011704  9.30989583333333 33.9456003467707  9.43080357142857 32.721066319896  C 9.55171130952381 31.4965322930212  9.81770833333333 30.2990897269181  10.2287946428571 29.1287386215865  L 5.80357142857143 29.1287386215865  C 4.20758928571429 29.1287386215865  2.8413318452381 28.6194191590811  1.70479910714286 27.6007802340702  C 0.568266369047619 26.5821413090594  0 25.3576072821847  0 23.927178153446  L 0 17.6853055916775  C 0 16.2548764629389  0.568266369047619 15.0303424360641  1.70479910714286 14.0117035110533  C 2.8413318452381 12.9930645860425  4.20758928571429 12.4837451235371  5.80357142857143 13  L 23.2142857142857 13  C 33.7332589285714 12.4837451235371  44.5665922619048 8.3224967490247  55.7142857142857 0  C 56.9717261904762 0  58.0598958333333 0.41179020372778  58.9787946428571 1.23537061118336  C 59.897693452381 2.05895101863892  60.3571428571429 3.03424360641525  60 4.16124837451236  Z M 27.8571428571429 25.1950585175553  C 36.9735863095238 26.1053315994798  46.2593005952381 29.8006068487213  55 36.2808842652796  L 55 5.2665799739922  C 46.186755952381 11.8118768964023  36.9010416666667 15.5288253142609  27.8571428571429 16.4174252275683  L 27.8571428571429 25.1950585175553  Z " fill-rule="nonzero" fill="#000000" stroke="none" transform="matrix(1 0 0 1 25 100 )" />
  </g>
</svg>