<?xml version="1.0" encoding="utf-8"?>
<svg version="1.1" xmlns:xlink="http://www.w3.org/1999/xlink" width="38px" height="40px" xmlns="http://www.w3.org/2000/svg">
  <g transform="matrix(1 0 0 1 -194 -105 )">
    <path d="M 213 107  C 222.52 107  230 114.92  230 125  C 230 135.08  222.52 143  213 143  C 203.48 143  196 135.08  196 125  C 196 114.92  203.48 107  213 107  Z " fill-rule="nonzero" fill="#ffffff" stroke="none" />
    <path d="M 213 106.5  C 222.8 106.5  230.5 114.64  230.5 125  C 230.5 135.36  222.8 143.5  213 143.5  C 203.2 143.5  195.5 135.36  195.5 125  C 195.5 114.64  203.2 106.5  213 106.5  Z " stroke-width="3" stroke="#00ffff" fill="none" />
  </g>
</svg>