<?xml version="1.0" encoding="utf-8"?>
<svg version="1.1" xmlns:xlink="http://www.w3.org/1999/xlink" width="28px" height="28px" xmlns="http://www.w3.org/2000/svg">
  <g transform="matrix(1 0 0 1 -257 -140 )">
    <path d="M 271 140  C 278.84 140  285 146.16  285 154  C 285 161.84  278.84 168  271 168  C 263.16 168  257 161.84  257 154  C 257 146.16  263.16 140  271 140  Z " fill-rule="nonzero" fill="#ffffff" stroke="none" />
    <path d="M 271 140.5  C 278.56 140.5  284.5 146.44  284.5 154  C 284.5 161.56  278.56 167.5  271 167.5  C 263.44 167.5  257.5 161.56  257.5 154  C 257.5 146.44  263.44 140.5  271 140.5  Z " stroke-width="1" stroke="#797979" fill="none" />
  </g>
</svg>